<svg width="292" height="292" viewBox="0 0 292 292" fill="none" xmlns="http://www.w3.org/2000/svg">
<g clip-path="url(#clip0_105_12)">
<g clip-path="url(#clip1_105_12)">
<path d="M195.93 63.71H95.38C86.983 63.7179 78.9322 67.0571 72.9947 72.9947C67.0571 78.9323 63.7179 86.983 63.71 95.38V195.94C63.7179 204.337 67.0571 212.388 72.9947 218.325C78.9322 224.263 86.983 227.602 95.38 227.61H195.94C204.337 227.602 212.388 224.263 218.325 218.325C224.263 212.388 227.602 204.337 227.61 195.94V95.38C227.599 86.9821 224.258 78.9314 218.319 72.9941C212.38 67.0568 204.328 63.7179 195.93 63.71ZM205.93 82.03H209.52V109.24L182.11 109.33L182 82.12L205.93 82.03ZM145.68 118.24C168.41 118.24 173.1 139.58 173.1 145.67C173.1 152.942 170.211 159.917 165.069 165.059C159.927 170.201 152.952 173.09 145.68 173.09C138.408 173.09 131.433 170.201 126.291 165.059C121.149 159.917 118.26 152.942 118.26 145.67C118.23 139.58 122.93 118.24 145.66 118.24H145.68ZM209.68 193.96C209.675 198.124 208.018 202.116 205.072 205.059C202.127 208.003 198.134 209.657 193.97 209.66H97.07C92.9129 209.657 88.9261 208.008 85.9819 205.073C83.0377 202.139 81.3759 198.157 81.36 194V127.42H104.12C101.936 133.257 100.815 139.438 100.81 145.67C100.721 151.612 101.815 157.511 104.027 163.026C106.239 168.541 109.526 173.561 113.697 177.794C117.867 182.027 122.837 185.389 128.319 187.683C133.8 189.978 139.683 191.159 145.625 191.159C151.567 191.159 157.45 189.978 162.931 187.683C168.413 185.389 173.383 182.027 177.553 177.794C181.724 173.561 185.01 168.541 187.223 163.026C189.435 157.511 190.529 151.612 190.44 145.67C190.437 139.439 189.32 133.258 187.14 127.42H209.63V194L209.68 193.96Z" fill="white"/>
</g>
</g>
<defs>
<clipPath id="clip0_105_12">
<rect width="291.32" height="291.32" fill="white"/>
</clipPath>
<clipPath id="clip1_105_12">
<rect width="291.32" height="291.32" fill="white"/>
</clipPath>
</defs>
</svg>
