<svg width="292" height="292" viewBox="0 0 292 292" fill="none" xmlns="http://www.w3.org/2000/svg">
<g clip-path="url(#clip0_104_2)">
<path d="M82.08 200.14H109.35V109.23H82.08V200.14ZM188.34 106.08C175.1 106.08 163.26 110.91 154.85 121.58V108.93H127.48V200.14H154.86V150.81C154.86 140.39 164.41 130.22 176.37 130.22C188.33 130.22 191.28 140.39 191.28 150.56V200.13H218.55V148.53C218.55 112.69 201.58 106.08 188.34 106.08ZM95.59 100.14C98.2921 100.14 100.934 99.3386 103.18 97.8372C105.427 96.3358 107.178 94.2018 108.211 91.7051C109.245 89.2085 109.515 86.4614 108.987 83.8114C108.459 81.1613 107.157 78.7274 105.246 76.8174C103.334 74.9074 100.899 73.6072 98.2488 73.0813C95.5984 72.5553 92.8515 72.8273 90.3556 73.8627C87.8597 74.8981 85.727 76.6505 84.2273 78.8982C82.7275 81.1459 81.928 83.7879 81.93 86.49C81.93 88.2834 82.2834 90.0592 82.97 91.7159C83.6566 93.3727 84.6629 94.8779 85.9315 96.1455C87.2001 97.4132 88.706 98.4184 90.3633 99.1038C92.0205 99.7892 93.7966 100.141 95.59 100.14Z" fill="white"/>
</g>
<defs>
<clipPath id="clip0_104_2">
<rect width="291.32" height="291.32" fill="white"/>
</clipPath>
</defs>
</svg>
