<svg width="292" height="292" viewBox="0 0 292 292" fill="none" xmlns="http://www.w3.org/2000/svg">
<g clip-path="url(#clip0_105_12)">
<path d="M236.72 98.13C230.226 100.929 223.356 102.758 216.33 103.56C223.713 99.3372 229.289 92.5514 232 84.49C225.005 88.523 217.382 91.3523 209.45 92.86C206.074 89.3994 202.035 86.6543 197.575 84.7884C193.115 82.9226 188.325 81.9743 183.49 82C163.9 82 148 97.4 148 116.43C147.994 119.074 148.303 121.709 148.92 124.28C134.903 123.647 121.168 120.122 108.577 113.926C95.9874 107.731 84.8144 98.9995 75.76 88.28C72.623 93.511 70.9769 99.5005 71 105.6C71.0198 111.318 72.475 116.939 75.2321 121.948C77.9892 126.958 81.9599 131.194 86.78 134.27C81.1469 134.125 75.6262 132.663 70.66 130V130.43C70.66 147.13 82.89 161.05 99.13 164.22C96.078 165.022 92.9356 165.429 89.78 165.43C87.5422 165.432 85.3091 165.225 83.11 164.81C85.4819 171.739 89.9454 177.761 95.8848 182.045C101.824 186.329 108.947 188.665 116.27 188.73C103.59 198.351 88.0969 203.534 72.18 203.48C69.3498 203.482 66.5218 203.322 63.71 203C80.0426 213.154 98.8983 218.518 118.13 218.48C183.42 218.48 219.13 165.97 219.13 120.48L219 116C225.928 111.152 231.93 105.099 236.72 98.13Z" fill="white"/>
</g>
<defs>
<clipPath id="clip0_105_12">
<rect width="291.32" height="291.32" fill="white"/>
</clipPath>
</defs>
</svg>
