<svg width="292" height="292" viewBox="0 0 292 292" fill="none" xmlns="http://www.w3.org/2000/svg">
<g clip-path="url(#clip0_105_12)">
<g clip-path="url(#clip1_105_12)">
<path d="M142.15 118.36C146.066 118.448 149.894 117.195 153 114.81C154.289 113.787 155.317 112.474 156 110.977C156.683 109.481 157.002 107.844 156.93 106.2V84.12C156.955 82.5633 156.605 81.0234 155.908 79.6309C155.212 78.2383 154.19 77.034 152.93 76.12C149.938 73.9424 146.297 72.8426 142.6 73C138 73 134.333 73.9767 131.6 75.93C130.308 76.7978 129.255 77.9778 128.541 79.3604C127.826 80.7431 127.471 82.2839 127.51 83.84V106C127.451 107.659 127.783 109.308 128.477 110.816C129.172 112.323 130.211 113.647 131.51 114.68C134.519 117.11 138.283 118.412 142.15 118.36ZM137.33 84.94C137.351 84.5215 137.482 84.1159 137.71 83.7645C137.938 83.4132 138.256 83.1287 138.63 82.94C139.671 82.385 140.841 82.1191 142.02 82.17C143.282 82.1112 144.539 82.3763 145.67 82.94C146.062 83.1141 146.398 83.393 146.641 83.7459C146.885 84.0987 147.026 84.5119 147.05 84.94V105.94C147.062 106.432 146.942 106.919 146.703 107.35C146.464 107.78 146.114 108.139 145.69 108.39C144.575 109.026 143.302 109.332 142.02 109.27C140.798 109.35 139.581 109.046 138.54 108.4C138.147 108.125 137.83 107.756 137.619 107.326C137.407 106.896 137.308 106.419 137.33 105.94V84.94ZM172.63 118.33C174.24 118.33 175.89 117.4 177.63 116.47C179.525 115.396 181.218 113.998 182.63 112.34V117.25H191.23V73H182.63V106.62C181.864 107.532 180.972 108.33 179.98 108.99C179.275 109.513 178.443 109.838 177.57 109.93C177.244 109.963 176.915 109.916 176.611 109.792C176.308 109.668 176.04 109.472 175.83 109.22C175.397 108.55 175.196 107.756 175.26 106.96V73H166.68V110C166.536 112.087 167.065 114.166 168.19 115.93C168.693 116.647 169.356 117.238 170.127 117.654C170.897 118.071 171.754 118.302 172.63 118.33ZM197.63 136.64H93.63C77.1 136.64 63.7 149.52 63.7 165.39V189.7C63.7 205.57 77.1 218.45 93.63 218.45H197.63C214.15 218.45 227.55 205.57 227.55 189.7V165.39C227.57 149.52 214.16 136.64 197.64 136.64H197.63ZM109.13 161.31H100V199.38H91.06V161.31H81.86V154.82H109.15L109.13 161.31ZM136.57 199.91H127V196C125.334 197.389 123.461 198.509 121.45 199.32C119.691 200.067 117.801 200.461 115.89 200.48C114.076 200.61 112.283 200.029 110.89 198.86C110.287 198.211 109.825 197.444 109.534 196.608C109.243 195.771 109.129 194.883 109.2 194V164H118.79V191.57C118.76 191.9 118.796 192.232 118.895 192.548C118.995 192.864 119.156 193.157 119.37 193.41C119.938 193.851 120.655 194.055 121.37 193.98C122.304 193.919 123.214 193.66 124.04 193.22C125.128 192.725 126.138 192.075 127.04 191.29V163.99H136.62L136.57 199.91ZM172.86 193.06C172.92 194.073 172.751 195.087 172.365 196.025C171.979 196.964 171.386 197.803 170.63 198.48C169.16 199.75 167 200.36 164.2 200.36C162.506 200.395 160.817 200.155 159.2 199.65C157.722 199.154 156.349 198.387 155.15 197.39V199.94H145.58V154.82H155.15V169.36C156.378 168.387 157.747 167.608 159.21 167.05C160.607 166.522 162.087 166.251 163.58 166.25C166.58 166.25 168.86 166.95 170.43 168.37C171.259 169.169 171.902 170.14 172.315 171.215C172.728 172.29 172.9 173.442 172.82 174.59L172.86 193.06ZM209.33 182.91H191.68V189.41C191.545 190.735 191.863 192.067 192.58 193.19C192.997 193.578 193.492 193.872 194.032 194.053C194.571 194.234 195.144 194.298 195.71 194.24C196.86 194.358 198.013 194.04 198.94 193.35C199.54 192.74 199.86 191.44 199.86 189.4V187.84H209.36V189.6C209.36 193.14 208.22 195.79 205.87 197.6C203.52 199.41 200.1 200.27 195.5 200.27C191.36 200.27 188.103 199.323 185.73 197.43C184.559 196.504 183.624 195.313 183.003 193.955C182.383 192.598 182.094 191.112 182.16 189.62V174.12C182.149 172.668 182.503 171.237 183.19 169.958C183.877 168.679 184.874 167.593 186.09 166.8C188.7 164.92 192.09 163.99 196.2 163.99C200.31 163.99 203.67 164.86 205.95 166.6C207.077 167.487 207.974 168.633 208.564 169.94C209.154 171.247 209.42 172.678 209.34 174.11L209.33 182.91ZM104 118.46H114.86V92L127.5 54.67H116.5L109.78 80.18H109L102 54.67H91L104 93.19V118.46ZM159.17 171.53L157.17 171.86L155.17 172.86V193.6C155.854 194.106 156.613 194.501 157.42 194.77L159.71 195.13C160.618 195.209 161.524 194.957 162.26 194.42C162.554 194.122 162.78 193.764 162.921 193.37C163.063 192.977 163.117 192.557 163.08 192.14V175C163.116 174.527 163.045 174.052 162.872 173.611C162.699 173.169 162.428 172.772 162.08 172.45C161.246 171.808 160.211 171.483 159.16 171.53H159.17Z" fill="white"/>
<path d="M196.22 170C195.08 169.891 193.942 170.232 193.05 170.95C192.697 171.378 192.432 171.871 192.271 172.401C192.11 172.931 192.055 173.488 192.11 174.04V177.52H200.27V174.04C200.318 173.484 200.255 172.924 200.083 172.394C199.911 171.863 199.635 171.372 199.27 170.95C198.417 170.247 197.322 169.906 196.22 170Z" fill="white"/>
</g>
</g>
<defs>
<clipPath id="clip0_105_12">
<rect width="291.32" height="291.32" fill="white"/>
</clipPath>
<clipPath id="clip1_105_12">
<rect width="291.32" height="291.32" fill="white"/>
</clipPath>
</defs>
</svg>
